<?xml version="1.0" encoding="UTF-8"?>
<!DOCTYPE svg PUBLIC "-//W3C//DTD SVG 1.1//EN" "http://www.w3.org/Graphics/SVG/1.1/DTD/svg11.dtd">
<!-- Creator: CorelDRAW 2021.5 -->
<svg xmlns="http://www.w3.org/2000/svg" xml:space="preserve" width="45.9648mm" height="10.8836mm" version="1.1" style="shape-rendering:geometricPrecision; text-rendering:geometricPrecision; image-rendering:optimizeQuality; fill-rule:evenodd; clip-rule:evenodd"
viewBox="0 0 5398.4 1278.24"
 xmlns:xlink="http://www.w3.org/1999/xlink"
 xmlns:xodm="http://www.corel.com/coreldraw/odm/2003">
 <defs>
  <style type="text/css">
   <![CDATA[
    .fil0 {fill:#919191}
    .fil1 {fill:#919191;fill-rule:nonzero}
   ]]>
  </style>
 </defs>
 <g id="Layer_x0020_1">
  <metadata id="CorelCorpID_0Corel-Layer"/>
  <path class="fil0" d="M107.57 256.57c-2.08,-3.22 6.17,-28.47 12.86,-39.36 9.18,-14.92 26.44,-27.62 44.96,-33.12 13.64,-4.04 23.83,-4.62 81.59,-4.62l66.02 0 0 39.42 0 39.42 -102.15 0c-56.16,0 -102.65,-0.78 -103.27,-1.74zm167.29 466.83c-1.17,-3.66 -6.33,-19.23 -11.49,-34.56 -5.14,-15.34 -14.22,-42.63 -20.19,-60.63 -5.95,-18.03 -26.13,-78.87 -44.85,-135.24l-33.74 -101.58c-4.16,1.36 -8.62,2.09 -13.26,2.09 -4.71,0 -9.21,-0.74 -13.41,-2.14l-27.19 82.22c-15.12,45.7 -30.13,91.27 -33.38,101.26 -5.38,16.57 -29.71,89.72 -45.38,136.44l-6.31 18.8 125.66 0 125.66 0 -2.11 -6.67zm-123.53 -407.8c22.6,0 40.91,17.42 40.91,38.95 0,8.78 -3.08,16.91 -8.23,23.43 1.1,9.78 9.13,34.81 33.95,109.54 56.9,171.25 79.76,240.45 79.76,241.54 0,0.55 1.79,1.01 3.97,1.01 7.95,0 -1.14,37.64 -14.53,60.21 -18.4,30.95 -56.3,57.7 -95.06,67.09 -18.62,4.5 -63.97,4.53 -81.07,0.05 -55.81,-14.6 -99.67,-58.12 -109.06,-108.22 -2.53,-13.45 -2.6,-17.84 -0.29,-18.57 1.66,-0.53 8.28,-16.97 14.7,-36.54 6.45,-19.58 18.97,-57.41 27.82,-84.08 8.87,-26.68 28.38,-85.63 43.35,-130.98 14.99,-45.37 28.74,-86.84 30.55,-92.17 1.03,-3.03 1.68,-5.31 1.93,-7.26 -5.99,-6.76 -9.6,-15.51 -9.6,-25.06 0,-21.53 18.3,-38.95 40.91,-38.95zm779.54 564.79l-149.8 -184.84 -9.6 -12.93 0.69 -66.13 0.66 -66.13 25.49 34.08 28.77 38.32 103.79 126.38 103.8 -126.38 28.77 -38.32 25.49 -34.08 0.66 66.13 0.69 66.13 -9.6 12.93 -149.81 184.84zm-574.56 -351.65c0,-290.81 0.47,-528.74 1.05,-528.74 0.56,0 4.29,4.91 8.27,10.91 4.2,6.34 20.35,27.53 24.44,32.7 7.35,9.3 16.23,20.78 19.74,25.52 3.5,4.74 9.91,13.24 14.23,18.87 13.11,17.04 48.73,64.25 86.39,114.5 48.76,65.03 50.9,67.87 72.62,96.28l19.1 25.02 1.28 67.31c0.69,37.02 0.41,67.04 -0.65,66.7 -1.05,-0.32 -7.35,-7.89 -14.01,-16.81 -11.27,-15.1 -37.37,-49.74 -116.48,-154.57 -17.52,-23.22 -32.45,-42.79 -33.16,-43.46 -0.73,-0.67 -1.3,164.85 -1.3,367.84l0 369.08 31.84 0 31.85 0 0 -234.9 0 -234.9 80.24 56.27 0.69 206.76 0.7 206.78 31.79 0 31.77 0 0 -361.02 0 -361.01 -21.01 0 -21.01 -0.02 -12.74 -16.88c-7.01,-9.27 -19.9,-26.37 -28.66,-37.99 -8.76,-11.62 -15.93,-21.69 -15.93,-22.41 0,-0.7 31.82,-0.97 70.69,-0.58 67.46,0.68 71.22,0.96 82.17,6.18 25.52,14.15 26.78,43.27 26.82,74.74l0.58 373.96 0.66 422.64 -185.98 -0.01 -186 0 0 -528.76zm-22.51 613.06c0.76,-24.19 1.55,-28.22 6.98,-35.47 3.37,-4.49 10.82,-10.19 16.56,-12.67 9.85,-4.28 20.27,-4.52 185.05,-4.57l163.1 -0.05c14.35,0 23,3.83 34.33,12.93 10.57,8.46 11.38,17.79 11.38,40.78l0 26.33 -209.13 0 -209.13 0 0.86 -27.28zm-46.07 97.61l-0.46 -38.8 254.89 0 254.87 0 0 38.82 0 38.8 -254.42 0 -254.42 0 -0.46 -38.82zm-136.39 -901.99c9.94,0 17.97,7.65 17.97,17.12 0,9.47 -8.03,17.11 -17.97,17.11 -9.95,0 -17.98,-7.65 -17.98,-17.11 0,-9.48 8.03,-17.12 17.98,-17.12zm1602.85 -80.85c2.08,-3.22 -6.17,-28.47 -12.86,-39.36 -9.18,-14.92 -26.44,-27.62 -44.96,-33.12 -13.65,-4.04 -23.84,-4.62 -81.6,-4.62l-66 0 0 39.42 0 39.42 102.15 0c56.16,0 102.65,-0.78 103.27,-1.74zm-167.29 466.83c1.17,-3.66 6.33,-19.23 11.49,-34.56 5.14,-15.34 14.22,-42.63 20.18,-60.63 5.97,-18.03 26.14,-78.87 44.86,-135.24l33.74 -101.58c4.16,1.36 8.62,2.09 13.26,2.09 4.71,0 9.21,-0.74 13.41,-2.14l27.19 82.22c15.12,45.7 30.13,91.27 33.38,101.26 5.38,16.57 29.71,89.72 45.38,136.44l6.31 18.8 -125.66 0 -125.66 0 2.11 -6.67zm123.53 -407.8c-22.6,0 -40.91,17.42 -40.91,38.95 0,8.78 3.07,16.91 8.23,23.43 -1.1,9.78 -9.13,34.81 -33.95,109.54 -56.9,171.25 -79.76,240.45 -79.76,241.54 0,0.55 -1.79,1.01 -3.97,1.01 -7.95,0 1.14,37.64 14.53,60.21 18.4,30.95 56.3,57.7 95.06,67.09 18.62,4.5 63.97,4.53 81.07,0.05 55.81,-14.6 99.67,-58.12 109.06,-108.22 2.53,-13.45 2.6,-17.84 0.29,-18.57 -1.67,-0.53 -8.28,-16.97 -14.7,-36.54 -6.45,-19.58 -18.97,-57.41 -27.82,-84.08 -8.87,-26.68 -28.38,-85.63 -43.35,-130.98 -14.99,-45.37 -28.74,-86.84 -30.56,-92.17 -1.02,-3.03 -1.68,-5.31 -1.91,-7.26 5.99,-6.76 9.6,-15.51 9.6,-25.06 0,-21.53 -18.3,-38.95 -40.91,-38.95zm-204.98 213.14c0,-290.81 -0.47,-528.74 -1.05,-528.74 -0.56,0 -4.29,4.91 -8.27,10.91 -4.22,6.34 -20.35,27.53 -24.44,32.7 -7.35,9.3 -16.23,20.78 -19.74,25.52 -3.5,4.74 -9.91,13.24 -14.23,18.87 -13.11,17.04 -48.73,64.25 -86.39,114.5 -48.76,65.03 -50.9,67.87 -72.62,96.28l-19.1 25.02 -1.28 67.31c-0.69,37.02 -0.41,67.04 0.65,66.7 1.05,-0.32 7.35,-7.89 14.01,-16.81 11.27,-15.1 37.37,-49.74 116.48,-154.57 17.52,-23.22 32.44,-42.79 33.16,-43.46 0.72,-0.67 1.3,164.85 1.3,367.84l0 369.08 -31.84 0 -31.85 0 0 -234.9 0 -234.9 -80.24 56.27 -0.69 206.76 -0.7 206.78 -31.79 0 -31.77 0 0 -361.02 0 -361.01 21.01 0 21.01 -0.02 12.74 -16.88c7,-9.27 19.9,-26.37 28.66,-37.99 8.76,-11.62 15.93,-21.69 15.93,-22.41 0,-0.7 -31.82,-0.97 -70.69,-0.58 -67.46,0.68 -71.22,0.96 -82.17,6.18 -25.52,14.15 -26.79,43.27 -26.82,74.74l-0.59 373.96 -0.65 422.64 185.98 -0.01 186 0 0 -528.76zm22.51 613.06c-0.76,-24.19 -1.55,-28.22 -6.98,-35.47 -3.37,-4.49 -10.82,-10.19 -16.57,-12.67 -9.84,-4.28 -20.26,-4.52 -185.04,-4.57l-163.1 -0.05c-14.35,0 -23,3.83 -34.33,12.93 -10.57,8.46 -11.38,17.79 -11.38,40.78l0 26.33 209.13 0 209.13 0 -0.86 -27.28zm46.07 97.61l0.46 -38.8 -254.89 0 -254.87 0 0 38.82 0 38.8 254.42 0 254.42 0 0.46 -38.82zm136.39 -901.99c-9.92,0 -17.97,7.66 -17.97,17.12 0,9.45 8.05,17.11 17.97,17.11 9.94,0 17.98,-7.66 17.98,-17.11 0,-9.47 -8.05,-17.12 -17.98,-17.12z"/>
  <path class="fil1" d="M2068.02 630.63l0 -386.14 117.12 0 69.21 263.36 68.4 -263.36 117.39 0 0 386.14 -72.26 0 -0.27 -303.99 -76.13 303.99 -75.15 0 -75.76 -303.99 -0.27 303.99 -72.26 0zm447.62 0l0 -386.14 78.2 0 0 386.14 -78.2 0zm152.53 0l0 -386.14 75.69 0 158.91 258.78 0 -258.78 72.26 0 0 386.14 -78.11 0 -156.49 -253.83 0 253.83 -72.26 0zm737.32 0l-84.22 0 -33.34 -87.91 -154.88 0 -32.09 87.91 -82.69 0 149.93 -386.14 82.6 0 154.69 386.14zm-142.92 -153.15l-53.65 -142.93 -52.13 142.93 105.78 0zm493.92 11.31l0 -65.25 167.73 0 0 154.07c-16.27,15.9 -39.92,29.84 -70.91,41.96 -30.92,12.06 -62.29,18.09 -94.12,18.09 -40.35,0 -75.49,-8.47 -105.53,-25.44 -29.93,-16.99 -52.48,-41.36 -67.58,-72.91 -15.1,-31.55 -22.66,-65.96 -22.66,-103.08 0,-40.27 8.46,-76.05 25.25,-107.42 16.9,-31.28 41.53,-55.38 73.98,-72.08 24.82,-12.86 55.54,-19.24 92.4,-19.24 47.92,0 85.4,10.07 112.36,30.18 26.88,20.24 44.22,48.01 51.95,83.6l-77.66 14.55c-5.39,-18.96 -15.63,-33.97 -30.65,-45.03 -14.93,-10.96 -33.61,-16.44 -56.09,-16.44 -33.97,0 -61.03,10.79 -81.06,32.45 -20.04,21.67 -30.13,53.74 -30.13,96.27 0,45.92 10.17,80.35 30.48,103.27 20.4,22.91 47.01,34.42 80,34.42 16.25,0 32.63,-3.23 48.99,-9.62 16.44,-6.38 30.47,-14.2 42.25,-23.37l0 -48.99 -88.99 0zm237.21 141.84l0 -386.14 78.2 0 0 386.14 -78.2 0zm152.54 0l0 -386.14 164.21 0c41.26,0 71.28,3.5 89.98,10.43 18.79,6.92 33.7,19.24 44.94,36.95 11.24,17.79 16.9,38.02 16.9,60.85 0,29.03 -8.44,52.94 -25.43,71.82 -16.99,18.86 -42.34,30.74 -76.14,35.68 16.82,9.8 30.65,20.58 41.53,32.36 10.97,11.77 25.7,32.72 44.23,62.73l47.1 75.33 -93.22 0 -55.89 -84.3c-20.06,-29.93 -33.81,-48.81 -41.27,-56.63 -7.36,-7.73 -15.19,-13.13 -23.47,-16 -8.35,-2.88 -21.48,-4.32 -39.45,-4.32l-15.82 0 0 161.25 -78.2 0zm78.2 -222.73l57.71 0c37.38,0 60.67,-1.62 70.02,-4.76 9.24,-3.16 16.62,-8.64 21.83,-16.37 5.3,-7.73 7.92,-17.44 7.92,-29.03 0,-13.02 -3.51,-23.47 -10.44,-31.55 -6.92,-8 -16.71,-13.02 -29.3,-15.1 -6.38,-0.89 -25.34,-1.34 -56.89,-1.34l-60.85 0 0 98.15zm490.84 80.89l0 -65.25 167.73 0 0 154.07c-16.25,15.9 -39.91,29.84 -70.91,41.96 -30.91,12.06 -62.28,18.09 -94.11,18.09 -40.35,0 -75.49,-8.47 -105.53,-25.44 -29.93,-16.99 -52.49,-41.36 -67.59,-72.91 -15.1,-31.55 -22.66,-65.96 -22.66,-103.08 0,-40.27 8.46,-76.05 25.26,-107.42 16.9,-31.28 41.52,-55.38 73.98,-72.08 24.8,-12.86 55.54,-19.24 92.4,-19.24 47.91,0 85.4,10.07 112.36,30.18 26.87,20.24 44.21,48.01 51.95,83.6l-77.66 14.55c-5.39,-18.96 -15.63,-33.97 -30.65,-45.03 -14.93,-10.96 -33.61,-16.44 -56.09,-16.44 -33.97,0 -61.03,10.79 -81.06,32.45 -20.05,21.67 -30.13,53.74 -30.13,96.27 0,45.92 10.17,80.35 30.48,103.27 20.4,22.91 47,34.42 79.99,34.42 16.27,0 32.64,-3.23 48.99,-9.62 16.44,-6.38 30.48,-14.2 42.26,-23.37l0 -48.99 -89 0zm237.22 141.84l0 -386.14 78.2 0 0 386.14 -78.2 0zm132.05 -125.12l76.05 -7.55c4.58,25.44 13.75,44.05 27.68,56 13.93,11.96 32.7,17.89 56.35,17.89 24.98,0 43.87,-5.31 56.54,-15.9 12.67,-10.62 19.05,-23.02 19.05,-37.22 0,-9.17 -2.69,-16.9 -8,-23.37 -5.31,-6.38 -14.65,-11.94 -27.95,-16.63 -9.08,-3.23 -29.75,-8.8 -62.12,-16.89 -41.61,-10.44 -70.82,-23.2 -87.64,-38.38 -23.63,-21.3 -35.41,-47.28 -35.41,-77.94 0,-19.68 5.58,-38.19 16.64,-55.36 11.13,-17.17 27.14,-30.21 48.07,-39.18 20.95,-9 46.12,-13.48 75.78,-13.48 48.27,0 84.67,10.69 109.04,32.17 24.44,21.48 37.21,50.07 38.45,85.92l-78.2 2.71c-3.31,-19.97 -10.42,-34.26 -21.28,-42.97 -10.89,-8.73 -27.24,-13.12 -48.99,-13.12 -22.48,0 -40.1,4.66 -52.77,14.01 -8.19,6.03 -12.32,14.02 -12.32,24.09 0,9.17 3.86,16.99 11.59,23.45 9.8,8.37 33.61,16.99 71.47,25.99 37.84,8.89 65.78,18.24 83.87,27.78 18.15,9.62 32.34,22.66 42.59,39.27 10.26,16.63 15.37,37.12 15.37,61.48 0,22.12 -6.11,42.87 -18.42,62.19 -12.31,19.33 -29.67,33.72 -52.15,43.06 -22.46,9.44 -50.51,14.13 -84.03,14.13 -48.81,0 -86.29,-11.24 -112.44,-33.81 -26.17,-22.46 -41.72,-55.27 -46.83,-98.33zm-3030.95 535.23l0 -234 31.04 0 0 206.54 115.04 0 0 27.46 -146.08 0zm157.41 0l89.76 -234 34.04 0 95.33 234 -35.3 0 -27.06 -70.91 -98.54 0 -25.39 70.91 -32.84 0zm67.33 -96.08l79.72 0 -24.39 -64.88c-7.36,-19.71 -12.91,-35.99 -16.77,-48.85 -3.23,15.24 -7.52,30.22 -12.92,45.04l-25.64 68.68zm204.53 96.08l-61.61 -234 32.09 0 35.13 153.44c3.81,16.07 7.2,32.04 10.08,47.82 6.15,-24.95 9.76,-39.32 10.78,-43.15l44.23 -158.12 37.31 0 33.55 118.47c8.22,29.41 14.32,57.03 18.24,82.8 3.11,-14.76 7.09,-31.7 11.94,-50.82l36.54 -150.45 31.1 0 -64.06 234 -30.13 0 -49.07 -178.28c-4.13,-14.92 -6.65,-24.06 -7.58,-27.44 -2.68,10.68 -5.06,19.81 -7.13,27.4l-49.08 178.32 -32.34 0zm360.53 0l0 -234 157.84 0 0 27.46 -126.8 0 0 72.88 109.81 0 0 27.46 -109.81 0 0 106.21 -31.04 0zm203.22 0l0 -234 31.05 0 0 234 -31.05 0zm86.24 0l0 -234 103.71 0c20.86,0 36.7,2.13 47.54,6.32 10.84,4.19 19.51,11.62 25.99,22.23 6.48,10.61 9.69,22.39 9.69,35.25 0,16.61 -5.39,30.61 -16.13,41.98 -10.72,11.39 -27.28,18.59 -49.73,21.69 8.23,3.91 14.43,7.83 18.69,11.66 9.03,8.28 17.58,18.67 25.6,31.15l40.46 63.73 -38.66 0 -30.94 -48.68c-9,-14.12 -16.47,-24.85 -22.29,-32.31 -5.87,-7.46 -11.11,-12.64 -15.73,-15.64 -4.58,-2.92 -9.33,-5 -14.11,-6.19 -3.5,-0.72 -9.22,-1.1 -17.22,-1.1l-35.84 0 0 103.93 -31.04 0zm31.04 -130.72l66.45 0c14.16,0 25.17,-1.47 33.12,-4.42 7.94,-2.89 13.99,-7.56 18.09,-14.05 4.12,-6.44 6.21,-13.41 6.21,-20.98 0,-11.06 -3.99,-20.21 -11.99,-27.34 -8.01,-7.14 -20.65,-10.68 -37.9,-10.68l-73.98 0 0 77.46zm203.65 130.72l0 -234 46.4 0 55.35 165.65c5.11,15.42 8.81,26.95 11.16,34.63 2.67,-8.48 6.86,-21.02 12.53,-37.52l56.32 -162.76 41.45 0 0 234 -29.73 0 0 -195.76 -68.32 195.76 -27.88 0 -67.54 -199.35 0 199.35 -29.74 0z"/>
 </g>
</svg>
