<?xml version="1.0" encoding="UTF-8"?>
<!DOCTYPE svg PUBLIC "-//W3C//DTD SVG 1.1//EN" "http://www.w3.org/Graphics/SVG/1.1/DTD/svg11.dtd">
<!-- Creator: CorelDRAW 2021.5 -->
<svg xmlns="http://www.w3.org/2000/svg" xml:space="preserve" width="37.0844mm" height="10.8594mm" version="1.1" style="shape-rendering:geometricPrecision; text-rendering:geometricPrecision; image-rendering:optimizeQuality; fill-rule:evenodd; clip-rule:evenodd"
viewBox="0 0 2536.05 742.63"
 xmlns:xlink="http://www.w3.org/1999/xlink"
 xmlns:xodm="http://www.corel.com/coreldraw/odm/2003">
 <defs>
  <style type="text/css">
   <![CDATA[
    .fil0 {fill:#919191;fill-rule:nonzero}
   ]]>
  </style>
 </defs>
 <g id="Layer_x0020_1">
  <metadata id="CorelCorpID_0Corel-Layer"/>
  <g data-name="Path 17">
   <path id="Path_17" class="fil0" d="M315.89 0c-174.43,0 -315.9,141.46 -315.9,315.91 0,174.42 141.47,315.89 315.91,315.89 174.44,0 315.9,-141.46 315.9,-315.89 0,-174.45 -141.46,-315.91 -315.9,-315.91l-0.01 0zm-285.38 315.91c0.01,-157.62 127.82,-285.39 285.43,-285.39 157.61,0 285.42,127.81 285.42,285.42 0,157.6 -127.81,285.42 -285.42,285.42 0,0 -0.03,0 -0.03,0 -157.61,0 -285.39,-127.82 -285.39,-285.42 0,0 0,-0.03 0,-0.03l-0.01 0.01zm0 0l0 0 0 0zm434.76 -175.9c0.01,0 0,0 0,0 -1.37,0 -2.69,0.53 -3.69,1.5l-145.95 145.83 -145.89 -145.76c-0.97,-1.01 -2.31,-1.59 -3.72,-1.59l-20.49 0.01c-2.89,-0.01 -5.25,2.35 -5.25,5.25l0 341.31c0,2.9 2.35,5.25 5.25,5.25l19.46 0.01c2.91,-0.01 5.27,-2.36 5.27,-5.26l-0.01 -302.33 124.28 124.25 -36.73 36.72c24.77,0 41.64,0.59 57.85,-15.61 16.19,16.23 33.06,15.61 57.81,15.61l-36.75 -36.72 124.32 -124.39 0 302.57c0.01,2.89 2.36,5.24 5.26,5.24l19.9 0.01c2.91,-0.01 5.26,-2.37 5.26,-5.27l0 -341.3c0,-2.9 -2.35,-5.25 -5.25,-5.25l-20.93 -0.06zm-169.38 228.05c0.01,11.08 8.99,20.06 20.08,20.06 11.08,0 20.06,-8.98 20.06,-20.06 0,-11.08 -8.98,-20.06 -20.06,-20.06 -11.09,0 -20.06,8.99 -20.06,20.06l-0.01 0zm0 0l0 0 0 0zm761.47 -261.21l-15.08 0c0,0 0,0 0,0 -1.03,0 -1.98,0.51 -2.54,1.35l-84.03 123.83 -84.02 -123.83c-0.58,-0.84 -1.54,-1.35 -2.56,-1.35 0,0 -0.01,0 -0.01,0l-15.09 0c-1.69,0 -3.07,1.38 -3.07,3.08l-0.01 215.71c0.01,1.7 1.39,3.08 3.08,3.08l15.41 0c1.71,0 3.08,-1.38 3.08,-3.08l0 -177.43 79.74 116.01c0.59,0.82 1.55,1.31 2.56,1.31l1.24 0.01c1.01,-0.01 1.96,-0.5 2.56,-1.33l79.64 -116.01 0 177.41c0,1.7 1.38,3.08 3.08,3.08l16.01 0c1.7,0 3.08,-1.38 3.08,-3.08l-0.01 -215.73c-0.01,-1.68 -1.38,-3.04 -3.07,-3.04 0,0 0,0 0,0l-0.01 0.03zm0 0l0 0 0 0zm220.72 140.81l-104.12 0 52.21 -114.3 51.91 114.3zm-41.09 -140.59c-0.49,-1.09 -1.58,-1.79 -2.78,-1.79 0,0 -0.01,0 -0.01,0l-15.4 0c0.01,0 0,0 0,0 -1.2,0 -2.29,0.7 -2.79,1.79l-100.45 217.23c-0.18,0.41 -0.27,0.85 -0.27,1.29 0,0.59 0.17,1.18 0.48,1.68 0.57,0.88 1.54,1.41 2.58,1.41l16.63 0c1.22,0 2.32,-0.71 2.82,-1.82l26.59 -58.58 123.22 0 26.59 58.58c0.51,1.09 1.59,1.8 2.8,1.82l17.55 0c0,0 0.01,0 0.02,0 1.04,0 2,-0.54 2.56,-1.42 0.32,-0.49 0.49,-1.08 0.49,-1.67 0,-0.44 -0.1,-0.88 -0.27,-1.29l-100.34 -217.23zm301.3 200.69l-123.55 0 0 -197.89c-0.01,-1.7 -1.39,-3.08 -3.08,-3.08l-16.02 0c-1.7,0 -3.08,1.38 -3.08,3.08l0.01 215.78c-0.01,1.7 1.37,3.08 3.07,3.08l142.65 0c1.7,0 3.07,-1.38 3.07,-3.08l0.01 -14.8c-0.01,-1.7 -1.39,-3.08 -3.09,-3.08l0.01 0zm0 0l0 0 0 0zm206.96 -60.1l-104.12 0 52.21 -114.3 51.91 114.3zm-41.12 -140.59c-0.51,-1.09 -1.59,-1.79 -2.8,-1.79l-15.41 0c-1.2,0.01 -2.29,0.71 -2.79,1.79l-100.45 217.23c-0.18,0.41 -0.27,0.85 -0.27,1.29 0,0.59 0.17,1.18 0.48,1.68 0.57,0.88 1.55,1.41 2.59,1.41l16.64 0c1.21,-0.02 2.3,-0.73 2.81,-1.82l26.59 -58.58 123.29 0 26.6 58.58c0.51,1.09 1.59,1.8 2.8,1.82l17.55 0c0,0 0.01,0 0.01,0 1.7,0 3.08,-1.37 3.08,-3.08 0,-0.44 -0.1,-0.88 -0.28,-1.28l-100.43 -217.25zm245.89 99.3l-68.08 0 0 -78.56 69.64 0c31.85,0 50.8,13.7 50.8,36.69l0 0.62c0,25.4 -20.06,41.27 -52.39,41.27l0.03 -0.01zm7.08 101.4l-75.2 0 0 -80.44 69.95 0c40.35,0 62.56,13.79 62.56,38.83l0 0.62c0,25.27 -21.99,40.97 -57.31,40.97l0 0.01zm36.7 -93.67c18.96,-8.99 31.07,-28.1 31.07,-49.09 0,-0.48 -0.01,-0.97 -0.02,-1.44l0 -0.62c0,-34.06 -28.67,-56.08 -73.02,-56.08l-89.11 0.01c-1.71,0 -3.08,1.37 -3.08,3.08l0 215.69c0,1.7 1.37,3.08 3.08,3.08l93.66 0c48.86,0 80.4,-24.3 80.4,-61.92l0 -0.62c0,-24.68 -14.84,-42.58 -43.08,-52.08l0.12 0zm0 0l0 0 0 0zm245.88 33.56l-104.12 0 52.21 -114.3 51.91 114.3zm-41.09 -140.59c-0.5,-1.09 -1.59,-1.79 -2.79,-1.79l-15.4 0c-1.2,0 -2.3,0.7 -2.8,1.79l-100.45 217.26c-0.18,0.4 -0.28,0.84 -0.28,1.29 0,1.69 1.37,3.06 3.06,3.08l16.64 0.01c1.21,-0.02 2.31,-0.73 2.82,-1.83l26.6 -58.57 123.28 0 26.59 58.57c0.52,1.09 1.6,1.81 2.81,1.83l17.54 0.01c0.01,-0.01 0.01,-0.01 0.01,-0.01 1.7,0 3.08,-1.38 3.08,-3.08 0,-0.44 -0.1,-0.88 -0.28,-1.29l-100.42 -217.26zm177.72 20.74l70.55 0c36.86,0 58.85,16.46 58.85,44.05l0 0.62c0,28.09 -23.48,46.24 -59.78,46.24l-69.64 0 0 -90.9 0.03 0zm158.94 195.93l-67.99 -88.01c38.1,-6.87 60.62,-30.42 60.62,-63.86l0 -0.62c0,-38.5 -32.2,-64.39 -80.12,-64.39l-90.59 0.01c-1.7,0 -3.08,1.37 -3.08,3.08l0.01 215.69c-0.01,1.7 1.37,3.08 3.07,3.08l16.03 0c1.69,0 3.07,-1.38 3.07,-3.08l0.01 -86.25 65.97 0 67.78 88.15c0.59,0.75 1.48,1.19 2.44,1.2l20.34 0.01c1.68,-0.1 3,-1.49 3,-3.17 0,-0.65 -0.19,-1.29 -0.57,-1.81l0.02 -0.02zm0 0l0 0 0 0zm-1582.24 139.32l-45.51 0c-0.88,-0.01 -1.59,0.7 -1.59,1.58l0 7.69c0,0.88 0.71,1.59 1.59,1.59l35.96 0.01 0 29.95c-9.75,7.64 -21.79,11.88 -34.19,11.99 -0.46,0.01 -0.94,0.02 -1.4,0.02 -25.02,0 -45.31,-20.29 -45.31,-45.31 0,-1.27 0.05,-2.55 0.16,-3.82l0 -0.32c-0.03,-0.77 -0.06,-1.55 -0.06,-2.33 0,-25 19.86,-45.5 44.84,-46.3 0.52,-0.01 1.06,-0.01 1.58,-0.01 12.41,0 24.36,4.69 33.46,13.12 0.28,0.25 0.65,0.39 1.03,0.39 0.03,0 0.05,0 0.08,0 0.41,-0.04 0.79,-0.23 1.07,-0.53l5.46 -6.25c0.25,-0.29 0.38,-0.66 0.38,-1.04 0,-0.03 0,-0.07 -0.01,-0.1 -0.03,-0.42 -0.23,-0.8 -0.55,-1.07 -11.02,-9.74 -25.23,-15.12 -39.94,-15.12 -0.68,0 -1.38,0.01 -2.04,0.04 -31.61,0.43 -57.01,26.19 -57.01,57.81 0,0.57 0.01,1.17 0.03,1.73l0 0.32c-0.06,1.05 -0.1,2.13 -0.1,3.2 0,30.96 25.11,56.06 56.07,56.06 0.66,0 1.33,-0.01 1.98,-0.03 16.62,-0.12 32.63,-6.24 45.1,-17.22 0.33,-0.29 0.51,-0.7 0.53,-1.14l0 -43.29c0,-0.88 -0.72,-1.59 -1.59,-1.59l0 -0.03zm0 0l0 0 0 0zm89.67 52.58c-25.75,-0.44 -46.39,-21.46 -46.39,-47.21 0,-0.57 0.01,-1.16 0.03,-1.74l0 -0.31c-0.03,-0.75 -0.05,-1.51 -0.05,-2.26 0,-25.49 20.59,-46.22 46.09,-46.37 25.74,0.44 46.39,21.45 46.39,47.21 0,0.58 -0.01,1.18 -0.03,1.75l0 0.32c0.04,0.72 0.06,1.48 0.06,2.22 0,25.51 -20.58,46.24 -46.09,46.41l-0.01 -0.01zm0 -108.5c-32.12,0.08 -58.11,26.16 -58.11,58.28 0,0.42 0.01,0.85 0.01,1.26l0 0.31c-0.02,0.65 -0.03,1.33 -0.03,2 0,31.6 25.63,57.23 57.23,57.23 0.2,0 0.4,0 0.59,0 32.12,-0.1 58.11,-26.17 58.11,-58.29 0,-0.27 -0.01,-0.57 -0.01,-0.84 0.08,-0.19 0.11,-0.39 0.11,-0.59 0,-0.2 -0.03,-0.4 -0.11,-0.59 0.01,-0.52 0.01,-1.06 0.01,-1.59 0,-31.56 -25.59,-57.15 -57.14,-57.15 -0.22,0 -0.44,0.01 -0.66,0.01l-0.01 -0.03zm0 0l0 0 0 0zm166.77 106.42l-64.32 0 0 -102.94c0,-0.88 -0.71,-1.6 -1.59,-1.6l-8.34 0.01c-0.88,-0.01 -1.59,0.7 -1.59,1.58l0 112.19c0,0.88 0.72,1.59 1.59,1.59l74.25 0.01c0.88,-0.01 1.59,-0.72 1.59,-1.59l0 -7.69c0,-0.03 0,-0.07 0,-0.1 0,-0.83 -0.67,-1.5 -1.5,-1.5 -0.03,0 -0.06,0 -0.1,0.01l0 0.03zm0 0l0 0 0 0zm70.42 0l-27.47 0 0 -93.65 27.47 0c0.92,-0.05 1.87,-0.09 2.8,-0.09 25.73,0 46.61,20.87 46.61,46.6 0,0.11 0,0.23 0,0.34l0 0.31c0,0.2 0.01,0.42 0.01,0.64 0,25.42 -20.62,46.03 -46.04,46.03 -1.13,0 -2.26,-0.04 -3.39,-0.12l0.01 -0.06zm0 -104.44l-37.36 0c-0.88,-0.01 -1.59,0.71 -1.59,1.59l0 112.19c0,0.88 0.71,1.59 1.59,1.59l37.34 0.01c1.2,0.06 2.43,0.11 3.64,0.11 31.76,0 57.52,-25.76 57.52,-57.52 0,-0.08 0,-0.16 0,-0.25l0 -0.47c0,-0.04 0,-0.1 0,-0.13 0,-31.66 -25.68,-57.34 -57.34,-57.34 -1.26,0 -2.54,0.05 -3.8,0.12l-0.01 0.1zm0 0l0 0 0 0zm164.93 106.52c-0.57,0.03 -1.14,0.05 -1.7,0.05 -12.65,0 -22.94,-10.21 -23.03,-22.86 0,-11.11 8.4,-20.3 23.69,-25.8l31.51 32.57c-7.3,9.54 -18.46,15.4 -30.47,16.02l0.01 0.01zm9.52 -98.42c0.13,-0.02 0.26,-0.02 0.39,-0.02 8.76,0 15.87,7.11 15.87,15.87 0,0.13 0,0.26 -0.01,0.39 0,9.79 -7.26,16.97 -22.23,21.95 -9.1,-9.78 -11.92,-14.87 -11.92,-21.48 0,-0.01 0,-0.01 0,-0.02 0,-9.25 7.5,-16.74 16.75,-16.74 0.36,0 0.73,0.01 1.09,0.03l0.05 0.01zm35.51 80.85c6.32,-9.1 11.7,-18.88 16.03,-29.07 0.09,-0.18 0.13,-0.38 0.13,-0.59 0,-0.21 -0.04,-0.41 -0.12,-0.6 -0.16,-0.38 -0.48,-0.7 -0.86,-0.86l-7.54 -3.04c-0.18,-0.07 -0.37,-0.1 -0.56,-0.1 -0.62,0 -1.19,0.36 -1.45,0.93 -3.6,8.85 -8.1,17.4 -13.36,25.39l-26.52 -27.24c17.73,-6.63 26.32,-16.4 26.32,-29.81 -0.19,-14.46 -11.97,-26.08 -26.42,-26.08 -0.31,0 -0.62,0.01 -0.92,0.01 -0.58,-0.03 -1.17,-0.05 -1.76,-0.05 -15.13,0 -27.49,12.1 -27.82,27.23 0.38,9.54 4.48,18.57 11.41,25.15 -15.63,3.95 -26.91,17.56 -27.91,33.65 0.25,18.23 15.11,32.89 33.34,32.89 0.89,0 1.78,-0.04 2.67,-0.11 14.85,-0.18 28.86,-7.04 38.1,-18.66l18.22 18.84c0.28,0.29 0.67,0.46 1.08,0.46 0.01,0 0.03,0 0.03,0 0,0 0.01,0 0.01,0 0.36,0 0.72,-0.12 1,-0.35l6.57 -5.46c0.34,-0.29 0.53,-0.68 0.56,-1.12 0,-0.03 0,-0.07 0,-0.11 0,-0.39 -0.16,-0.77 -0.45,-1.03l-19.78 -20.26zm129.2 15.49l-27.46 0 0 -93.65 27.46 0c0.92,-0.05 1.87,-0.09 2.8,-0.09 25.73,0 46.61,20.87 46.61,46.6 0,0.11 0,0.23 0,0.34l0 0.31c0,0.2 0,0.42 0,0.64 0,25.42 -20.61,46.03 -46.03,46.03 -1.13,0 -2.26,-0.04 -3.39,-0.12l0 -0.06zm0 -104.44l-37.34 0c-0.88,-0.01 -1.59,0.71 -1.59,1.59l0 112.19c0,0.88 0.72,1.59 1.59,1.59l37.34 0.01c1.2,0.06 2.43,0.11 3.64,0.11 31.76,0 57.51,-25.76 57.51,-57.52 0,-0.08 0,-0.16 0,-0.25l0 -0.47c0,-0.03 0,-0.07 0,-0.1 0,-31.68 -25.69,-57.37 -57.37,-57.37 -1.26,0 -2.54,0.05 -3.8,0.12l0.01 0.1zm0 0l0 0 0 0zm105.44 -0.06l-8.33 0c-0.88,-0.01 -1.6,0.7 -1.6,1.58l0 112.19c0,0.88 0.72,1.59 1.59,1.59l8.34 0.01c0.88,-0.01 1.59,-0.72 1.59,-1.59l0 -112.19c0,-0.88 -0.71,-1.59 -1.59,-1.59l0.01 0.01zm0 0l0 0 0 0zm116.03 73.25l-54.35 0 27.22 -59.65 27.13 59.65zm-21.51 -73.17c-0.27,-0.54 -0.81,-0.88 -1.42,-0.88l-7.94 0.01c-0.59,-0.01 -1.14,0.33 -1.42,0.86l-52.24 112.98c-0.07,0.19 -0.11,0.39 -0.11,0.59 0,0.84 0.66,1.54 1.5,1.59l8.65 0c0.6,-0.01 1.16,-0.37 1.41,-0.91l13.86 -30.5 64.21 0.01 13.84 30.49c0.26,0.54 0.81,0.9 1.42,0.9l9.12 0.01c0.51,-0.02 1,-0.27 1.29,-0.71 0.15,-0.24 0.24,-0.52 0.24,-0.81 0,-0.23 -0.05,-0.44 -0.15,-0.65l-52.27 -112.99zm188.32 -0.08l-7.82 0c-0.51,0 -0.97,0.25 -1.27,0.66l-43.75 64.48 -43.75 -64.48c-0.27,-0.41 -0.75,-0.66 -1.24,-0.66 -0.01,0 -0.02,0 -0.03,0l-7.82 0.01c-0.88,-0.01 -1.59,0.7 -1.59,1.58l0 112.19c0,0.88 0.71,1.59 1.59,1.59l7.95 0.01c0.87,-0.01 1.58,-0.72 1.58,-1.59l0.01 -92.49 41.59 60.51c0.28,0.41 0.75,0.66 1.26,0.68l0.66 0.01c-0.01,-0.01 -0.01,-0.01 -0.01,-0.01 0.51,0 0.98,-0.26 1.25,-0.68l41.57 -60.51 0 92.47c0,0.88 0.72,1.59 1.59,1.59l8.34 0.01c0.88,-0.01 1.59,-0.72 1.59,-1.59l0 -112.19c0,-0.88 -0.71,-1.59 -1.59,-1.59l-0.11 0.04zm0 0l0 0 0 0zm92.96 106.59c-25.75,-0.44 -46.4,-21.46 -46.4,-47.21 0,-0.57 0.02,-1.16 0.03,-1.74l0 -0.31c-0.03,-0.75 -0.05,-1.51 -0.05,-2.26 0,-25.49 20.59,-46.22 46.09,-46.37 25.75,0.44 46.41,21.45 46.41,47.21 0,0.58 -0.02,1.18 -0.04,1.75l0 0.32c0.04,0.72 0.05,1.48 0.05,2.22 0,25.51 -20.58,46.24 -46.09,46.41l0 -0.01zm0 -108.5c-32.12,0.1 -58.11,26.18 -58.11,58.31 0,0.4 0.01,0.83 0.01,1.22l0 0.31c-0.01,0.65 -0.03,1.33 -0.03,2 0,31.6 25.62,57.23 57.23,57.23 0.2,0 0.4,0 0.59,0 32.11,-0.1 58.1,-26.17 58.1,-58.29 0,-0.27 -0.01,-0.57 -0.01,-0.84 0.08,-0.19 0.12,-0.39 0.12,-0.59 0,-0.2 -0.03,-0.4 -0.12,-0.59 0.02,-0.52 0.03,-1.06 0.03,-1.59 0,-31.56 -25.59,-57.15 -57.15,-57.15 -0.22,0 -0.44,0.01 -0.66,0.01l-0.01 -0.03zm0 0l0 0 0 0zm185.9 1.91l-7.94 0c-0.88,-0.01 -1.59,0.7 -1.59,1.58l0 93.17 -74.61 -94.12c-0.29,-0.37 -0.74,-0.58 -1.21,-0.59l-7.84 0.01c-0.88,-0.01 -1.59,0.7 -1.59,1.58l0 112.19c0,0.88 0.71,1.59 1.59,1.59l7.94 0.01c0.88,-0.01 1.59,-0.72 1.59,-1.59l0 -95.25 76.2 96.23c0.29,0.37 0.73,0.59 1.2,0.59l6.26 0c0.88,0 1.59,-0.72 1.59,-1.59l0 -112.21c0,-0.88 -0.71,-1.59 -1.59,-1.59l0 0.01zm0 0l0 0 0 0zm78.69 104.5l-27.47 0 0 -93.65 27.47 0c0.92,-0.05 1.87,-0.09 2.8,-0.09 25.73,0 46.6,20.87 46.6,46.6 0,0.11 0,0.23 0,0.34l0 0.31c0,0.2 0.01,0.42 0.01,0.64 0,25.42 -20.62,46.03 -46.04,46.03 -1.13,0 -2.26,-0.04 -3.39,-0.12l0.01 -0.06zm0 -104.44l-37.28 0c-0.88,-0.01 -1.59,0.71 -1.59,1.59l0 112.19c0,0.88 0.72,1.59 1.59,1.59l37.34 0.01c1.19,0.07 2.42,0.11 3.62,0.11 31.76,0 57.52,-25.76 57.52,-57.52 0,-0.08 0,-0.16 0,-0.24l0.01 -0.47c-0.01,-0.03 -0.01,-0.07 -0.01,-0.1 0,-31.68 -25.69,-57.37 -57.37,-57.37 -1.26,0 -2.53,0.05 -3.77,0.12l-0.06 0.1zm0 0l0 0 0 0zm132.94 51.88c-26.45,-5.43 -31.46,-12.28 -31.46,-23l0 -0.32c0,-11.35 10.86,-19.61 25.86,-19.61 0.29,-0.01 0.61,-0.01 0.91,-0.01 11.69,0 22.96,4.4 31.57,12.32 0.27,0.23 0.62,0.36 0.96,0.36 0.06,0 0.12,0 0.18,-0.01 0.41,-0.04 0.8,-0.24 1.06,-0.55l5.29 -6.57c0.22,-0.25 0.33,-0.58 0.33,-0.92 0,-0.07 0,-0.13 -0.01,-0.2 -0.05,-0.41 -0.25,-0.77 -0.55,-1.04 -10.48,-9.01 -23.86,-13.99 -37.69,-13.99 -0.57,0 -1.17,0.01 -1.73,0.03 -1.2,-0.14 -2.45,-0.21 -3.67,-0.21 -17.67,0 -32.41,13.54 -33.9,31.14l0 0.32c0,17.87 11.3,27.46 39.06,33.06 25.64,5.16 30.5,11.86 30.5,22.37l0 0.31c0,12.21 -11.11,20.75 -26.83,20.75 -0.38,0.01 -0.76,0.01 -1.14,0.01 -14.37,0 -28.12,-5.89 -38.04,-16.27 -0.29,-0.26 -0.67,-0.41 -1.07,-0.41 -0.01,0 -0.03,0 -0.04,0 -0.42,0.02 -0.81,0.21 -1.09,0.52l-5.46 6.25c-0.25,0.29 -0.38,0.66 -0.38,1.04 0,0.43 0.18,0.85 0.49,1.15 12.19,11.76 28.47,18.33 45.41,18.33 0.27,0 0.55,-0.01 0.81,-0.01 1.48,0.19 2.98,0.29 4.47,0.29 18.21,0 33.25,-14.24 34.24,-32.42l0 -0.32c0,-17.35 -11.35,-26.99 -38.1,-32.48l0.02 0.08zm0 0l0 0 0 0zm-1594.09 266.67c-0.14,-0.14 -0.33,-0.22 -0.53,-0.22 -0.21,0 -0.4,0.08 -0.54,0.22 -5.12,5.89 -12.55,9.27 -20.36,9.27 -0.02,0 -0.05,0 -0.07,0 -13.92,-0.33 -25.04,-11.71 -25.04,-25.63 0,-0.4 0.01,-0.81 0.03,-1.2 -0.03,-0.43 -0.04,-0.87 -0.04,-1.3 0,-13.81 11.13,-25.04 24.94,-25.17 7.6,0.01 14.86,3.18 20.02,8.75 0.15,0.14 0.34,0.23 0.54,0.23 0.21,0 0.4,-0.08 0.54,-0.23l3.18 -3.32c0.14,-0.14 0.23,-0.34 0.24,-0.55 -0.01,-0.22 -0.1,-0.42 -0.27,-0.56 -6.16,-6.36 -14.65,-9.96 -23.5,-9.96 -0.24,0 -0.48,0.01 -0.71,0.01 -17.3,0.12 -31.27,14.19 -31.27,31.49 0,0.33 0.01,0.66 0.02,0.98 -0.03,0.4 -0.03,0.81 -0.03,1.21 0,17.08 13.85,30.92 30.92,30.92 0.06,0 0.12,0 0.18,0 0.08,0 0.15,0 0.22,0 9.35,0 18.27,-3.95 24.55,-10.86 0.14,-0.15 0.23,-0.35 0.23,-0.56 0,-0.21 -0.09,-0.4 -0.24,-0.55l-3.02 -2.98zm65.29 8.13l-38.5 0 0 -22.92 34.12 0c0.44,-0.01 0.79,-0.36 0.79,-0.8l0 -4.17c0,-0.44 -0.36,-0.79 -0.79,-0.79l-34.12 0.01 0 -22.4 38.1 0c0.44,-0.01 0.79,-0.36 0.79,-0.8l0 -4.18c0,-0.44 -0.36,-0.79 -0.79,-0.79l-43.4 0.01c-0.44,-0.01 -0.79,0.35 -0.79,0.79l0 60.96c0,0.44 0.36,0.79 0.79,0.79l43.81 0.01c0.44,-0.01 0.8,-0.37 0.8,-0.81l0 -4.08c-0.01,-0.44 -0.36,-0.79 -0.79,-0.81l-0.01 -0.01zm0 0l0 0 0 0zm61.4 0l-35.01 0 0 -55.99c0,-0.02 0,-0.03 0,-0.03 0,-0.42 -0.34,-0.77 -0.76,-0.78l-4.53 0.02c-0.44,-0.01 -0.79,0.34 -0.79,0.78l0 60.96c0,0.44 0.36,0.79 0.79,0.79l40.32 0.01c0.44,-0.01 0.79,-0.36 0.79,-0.8l0 -4.16c-0.02,-0.44 -0.38,-0.79 -0.82,-0.79l0 -0.01zm0 0l0 0 0 0zm63.89 0l-38.49 0 0 -22.92 34.14 0c0.44,-0.01 0.79,-0.36 0.79,-0.8l0 -4.17c0,-0.44 -0.35,-0.79 -0.79,-0.79l-34.14 0.01 0 -22.4 38.1 0c0.44,-0.01 0.79,-0.36 0.79,-0.8l0 -4.18c0,-0.44 -0.35,-0.79 -0.79,-0.79l-43.42 0.01c-0.44,-0.01 -0.79,0.35 -0.79,0.79l0 60.96c0,0.44 0.36,0.79 0.79,0.79l43.81 0.01c0.44,-0.01 0.79,-0.37 0.79,-0.81l0.01 -4.08c-0.01,-0.44 -0.36,-0.8 -0.8,-0.8l0 -0.01zm0 0l0 0 0 0zm46.17 -51.04c8.92,0 14.46,3.99 14.46,10.62 0,7.26 -5.7,11.77 -14.9,11.77l-19.33 -0.01 0 -22.4 19.78 0.01zm1.59 51.04l-21.34 0 0 -22.92 19.86 0c11.45,0 17.75,3.93 17.75,11.24 0,7.3 -6.22,11.68 -16.29,11.68l0.01 0.01zm10.15 -26.55c5.45,-2.54 8.93,-8 8.93,-14.01 0,-0.15 -0.01,-0.31 -0.01,-0.47 0,-9.53 -8.06,-15.76 -20.54,-15.76l-25.21 0.01c-0.43,-0.01 -0.79,0.34 -0.79,0.78l0 60.96c0,0 0,0 0,0 0,0.42 0.34,0.76 0.76,0.76 0.01,0 0.03,0 0.03,0l26.46 0.01c13.77,0 22.62,-6.84 22.62,-17.58 -0.12,-7.19 -5.25,-13.31 -12.29,-14.71l0.04 0zm0 0l0 0 0 0zm37.89 -24.48l20.06 0c10.47,0 16.73,4.77 16.73,12.71 0,7.94 -6.66,13.14 -16.98,13.14l-19.78 -0.01 -0.02 -25.84zm25.66 30.53c9.62,-0.59 17.14,-8.53 17.19,-18.17 0,-10.83 -9.06,-18.12 -22.54,-18.12l-25.6 0.01c-0.43,-0.01 -0.78,0.34 -0.78,0.78l0 60.96c0,0.44 0.35,0.79 0.79,0.79l4.52 0.01c0.44,-0.01 0.8,-0.36 0.8,-0.8l0 -24.48 18.78 0.01 19.19 24.94c0.14,0.18 0.36,0.29 0.59,0.29 0.01,0 0.02,0 0.03,0l5.74 0.01c0.3,-0.02 0.57,-0.19 0.71,-0.45 0.05,-0.11 0.08,-0.23 0.08,-0.35 0,-0.18 -0.05,-0.34 -0.17,-0.49l-19.33 -24.95zm78.58 3.54l-29.71 0 14.87 -32.61 14.83 32.61zm-11.83 -39.8c-0.14,-0.27 -0.4,-0.44 -0.7,-0.45l-4.38 0.01c-0.3,-0.01 -0.57,0.16 -0.7,0.43l-28.39 61.38c-0.03,0.11 -0.05,0.21 -0.05,0.31 0,0.42 0.34,0.77 0.76,0.78l4.76 0.01c0.31,-0.01 0.59,-0.21 0.7,-0.49l7.54 -16.61 34.92 0.01 7.54 16.6c0.12,0.27 0.39,0.44 0.69,0.47l4.97 0.01c0.26,-0.02 0.5,-0.14 0.65,-0.36 0.06,-0.12 0.1,-0.24 0.1,-0.36 0,-0.13 -0.03,-0.25 -0.1,-0.37l-28.32 -61.38zm81.93 0.01l-47.01 0c-0.44,-0.01 -0.79,0.35 -0.79,0.79l0 4.18c0,0.43 0.36,0.79 0.79,0.79l20.45 0.01 0 55.99c0,0.42 0.35,0.78 0.79,0.78l4.53 0.01c0.43,-0.01 0.79,-0.37 0.79,-0.81l0 -55.99 20.45 0.01c0.43,-0.01 0.79,-0.37 0.79,-0.81l0 -4.18c-0.01,-0.42 -0.36,-0.77 -0.79,-0.79l0.01 0.01zm0 0l0 0 0 0zm64.06 56.75l-38.49 0 0 -22.92 34.13 0c0.43,-0.01 0.79,-0.36 0.79,-0.8l0 -4.17c0,-0.44 -0.36,-0.79 -0.79,-0.79l-34.12 0.01 0 -22.4 38.1 0c0.44,-0.01 0.79,-0.36 0.79,-0.8l0 -4.18c0,-0.44 -0.36,-0.79 -0.79,-0.79l-43.41 0.01c-0.44,-0.01 -0.8,0.35 -0.8,0.79l0 60.96c0,0.44 0.36,0.79 0.79,0.79l43.81 0.01c0.44,-0.01 0.79,-0.37 0.79,-0.81l0.01 -4.08c-0.01,-0.44 -0.36,-0.8 -0.8,-0.8l0 -0.01zm0 0l0 0 0 0zm96.41 -56.75l-47.01 0c-0.01,-0.01 -0.01,-0.01 -0.01,-0.01 -0.44,0 -0.78,0.34 -0.78,0.78 0,0.01 0,0.01 0,0.01l0 4.18c0,0 0,0.01 0,0.01 0,0.43 0.34,0.78 0.78,0.78 0,0 0.01,0 0.01,0l20.47 0.01 0 55.99c0,0.42 0.36,0.78 0.79,0.78l4.46 0.01c0.44,-0.01 0.79,-0.37 0.79,-0.81l0 -55.99 20.47 0.01c0.44,-0.01 0.79,-0.37 0.79,-0.81l0 -4.18c0,-0.43 -0.36,-0.79 -0.79,-0.79l0.03 0.01zm0 0l0 0 0 0zm68.35 0l-4.52 0c-0.44,-0.01 -0.8,0.34 -0.8,0.78l0 27.42 -37.48 0.02 0 -27.45c0,-0.02 0,-0.03 0,-0.03 0,-0.42 -0.34,-0.77 -0.77,-0.78l-4.52 0.02c-0.44,-0.01 -0.8,0.34 -0.8,0.78l0 60.96c0,0.44 0.36,0.79 0.79,0.79l4.53 0.01c0,-0.01 0,-0.01 0,-0.01 0.42,0 0.76,-0.34 0.76,-0.77 0,-0.01 0,-0.02 0,-0.03l0 -27.8 37.44 0.01 0 27.8c0,0.42 0.35,0.78 0.79,0.78l4.53 0.01c0.43,-0.01 0.79,-0.36 0.79,-0.8l0 -60.96c-0.01,-0.42 -0.36,-0.76 -0.78,-0.76 -0.01,0 -0.01,0 -0.02,0l0.05 0.01zm0 0l0 0 0 0zm68.47 56.75l-38.49 0 0 -22.92 34.13 0c0.44,-0.01 0.79,-0.36 0.79,-0.8l0 -4.17c0,-0.44 -0.36,-0.79 -0.79,-0.79l-34.13 0.01 0 -22.4 38.1 0c0.43,-0.01 0.78,-0.36 0.78,-0.8l0 -4.18c0,-0.44 -0.35,-0.79 -0.79,-0.79l-43.42 0.01c-0.44,-0.01 -0.79,0.35 -0.79,0.79l0 60.96c0,0.44 0.36,0.79 0.79,0.79l43.81 0.01c0.44,-0.01 0.79,-0.37 0.79,-0.81l0.01 -4.08c-0.01,-0.44 -0.36,-0.79 -0.79,-0.81l0 -0.01zm0 0l0 0 0 0zm78.79 -51.04c8.92,0 14.46,3.99 14.46,10.62 0,7.26 -5.7,11.77 -14.87,11.77l-19.33 -0.01 0 -22.4 19.74 0.01zm1.59 51.04l-21.33 0 0 -22.92 19.86 0c11.45,0 17.77,3.93 17.77,11.24 0,7.3 -6.25,11.68 -16.32,11.68l0.01 0.01zm10.15 -26.55c5.44,-2.54 8.93,-8 8.93,-14.01 0,-0.15 -0.01,-0.31 -0.01,-0.47 0,-9.53 -8.06,-15.76 -20.54,-15.76l-25.19 0.01c-0.44,-0.01 -0.79,0.34 -0.79,0.78l0 60.96c-0.01,0 -0.01,0 -0.01,0 0,0.42 0.34,0.76 0.76,0.76 0.01,0 0.03,0 0.03,0l26.47 0.01c13.76,0 22.66,-6.84 22.66,-17.58 -0.16,-7.19 -5.28,-13.3 -12.32,-14.72l0.02 0.01zm0 0l0 0 0 0zm76.39 26.55l-38.49 0 0 -22.92 34.13 0c0.43,-0.01 0.79,-0.36 0.79,-0.8l0 -4.17c0,-0.44 -0.36,-0.79 -0.79,-0.79l-34.12 0.01 0 -22.4 38.1 0c0.43,-0.01 0.79,-0.36 0.79,-0.79l0 -4.18c-0.01,-0.44 -0.36,-0.8 -0.8,-0.8l-43.36 0.01c-0.01,-0.01 -0.01,-0.01 -0.01,-0.01 -0.42,0 -0.76,0.34 -0.76,0.77 0,0.01 0,0.02 0,0.03l0 60.96c0,0.01 0,0.01 0,0.01 0,0.42 0.34,0.77 0.76,0.79l43.82 0.01c0.43,-0.01 0.79,-0.37 0.79,-0.81l0 -4.08c-0.01,-0.44 -0.36,-0.79 -0.79,-0.81l-0.04 -0.01zm0 0l0 0 0 0zm61.15 -16.97l-29.74 0 14.91 -32.61 14.83 32.61zm-11.86 -39.8c-0.13,-0.29 -0.4,-0.46 -0.7,-0.46l-4.33 0.01c-0.31,-0.01 -0.57,0.16 -0.7,0.43l-28.39 61.38c-0.05,0.12 -0.1,0.25 -0.1,0.38 0,0.12 0.04,0.25 0.1,0.36 0.14,0.23 0.38,0.36 0.63,0.36 0.01,0 0.01,0 0.03,0l4.77 0.01c0.31,-0.01 0.59,-0.2 0.71,-0.49l7.54 -16.61 34.92 0.01 7.54 16.6c0.12,0.27 0.39,0.44 0.69,0.47l4.97 0.01c0.25,-0.02 0.49,-0.15 0.63,-0.36 0.06,-0.12 0.09,-0.24 0.09,-0.36 0,-0.13 -0.03,-0.25 -0.08,-0.37l-28.32 -61.38zm93.96 0.01l-4.52 0c-0.44,-0.01 -0.8,0.34 -0.8,0.78l0 35.59c0,13.62 -7.1,21.41 -19.52,21.41 -12.43,0 -19.86,-7.94 -19.86,-21.86l0.01 -35.16c-0.01,-0.45 -0.36,-0.81 -0.8,-0.81l-4.52 0.01c-0.44,-0.01 -0.8,0.34 -0.8,0.78l0 35.59c-0.08,0.86 -0.13,1.72 -0.13,2.58 0,13.55 10.99,24.54 24.54,24.54 0.45,0 0.91,-0.01 1.36,-0.03 0.38,0.01 0.75,0.02 1.13,0.02 13.69,0 24.8,-11.11 24.8,-24.8 0,-0.94 -0.05,-1.88 -0.16,-2.82l0 -35.07c-0.01,-0.02 -0.01,-0.03 -0.01,-0.03 0,-0.4 -0.32,-0.74 -0.72,-0.74l0.01 0.01zm0 0l0 0 0 0zm66.34 0l-47 0c-0.01,-0.01 -0.01,-0.01 -0.01,-0.01 -0.42,0 -0.76,0.34 -0.76,0.76 0,0.01 0,0.03 0,0.03l0 4.18c0,0.01 0,0.01 0,0.02 0,0.42 0.34,0.77 0.76,0.78l20.48 0.01 0 55.99c0,0.42 0.36,0.78 0.79,0.78l4.53 0.01c0.44,-0.01 0.79,-0.37 0.79,-0.81l0 -55.99 20.45 0.01c0.44,-0.01 0.79,-0.37 0.79,-0.81l0 -4.18c-0.01,-0.42 -0.36,-0.77 -0.79,-0.79l-0.03 0.01zm0 0l0 0 0 0zm70.79 0l-5.4 0c-0.01,-0.01 -0.02,-0.01 -0.03,-0.01 -0.25,0 -0.48,0.12 -0.63,0.31l-22.23 31.75 -22.22 -31.75c-0.14,-0.2 -0.38,-0.31 -0.63,-0.31 -0.01,0 -0.01,0 -0.02,0l-5.66 0.01c-0.01,-0.01 -0.01,-0.01 -0.01,-0.01 -0.29,0 -0.56,0.16 -0.7,0.42 -0.08,0.12 -0.12,0.27 -0.12,0.41 0,0.14 0.05,0.29 0.12,0.41l25.97 36.63 0 23.81c0,0.43 0.36,0.79 0.79,0.79l4.52 0.01c0.42,-0.01 0.77,-0.36 0.77,-0.78 0,-0.01 0,-0.01 0,-0.02l0 -23.96 25.97 -36.51c0.08,-0.12 0.12,-0.27 0.12,-0.41 0,-0.14 -0.04,-0.29 -0.12,-0.41 -0.08,-0.25 -0.3,-0.42 -0.56,-0.42 -0.01,0 -0.03,0 -0.05,0l0.11 0.05zm0 0l0 0 0 0zm79.05 57.9c-14.05,-0.24 -25.3,-11.7 -25.3,-25.75 0,-0.36 0.01,-0.73 0.03,-1.09 -0.02,-0.39 -0.03,-0.8 -0.03,-1.2 0,-13.9 11.23,-25.19 25.12,-25.26 14.04,0.26 25.3,11.72 25.3,25.77 0,0.36 -0.01,0.72 -0.03,1.07 0.03,0.4 0.04,0.8 0.04,1.2 0,13.9 -11.24,25.19 -25.13,25.26l0 0zm0 -58.96c-17.44,0.12 -31.52,14.3 -31.52,31.74 0,0.24 0.01,0.5 0.01,0.73 -0.01,0.36 -0.01,0.72 -0.01,1.08 0,17.15 13.9,31.05 31.05,31.05 0.1,0 0.21,0 0.31,0 17.42,-0.06 31.52,-14.21 31.52,-31.64 0,-0.15 0,-0.31 0,-0.46 0.01,-0.04 0.01,-0.09 0.01,-0.14 0,-0.05 0,-0.1 -0.01,-0.15 0,-0.05 0,-0.1 0,-0.14 0,-0.05 0,-0.1 -0.01,-0.15 0.01,-0.3 0.01,-0.62 0.01,-0.92 0,-17.13 -13.89,-31.02 -31.02,-31.02 -0.1,0 -0.22,0 -0.33,0l-0.01 0.01zm0 0l0 0 0 0zm95.49 1.06l-42.86 0c-0.44,-0.01 -0.8,0.35 -0.8,0.79l0 60.96c0,0.44 0.36,0.79 0.79,0.79l4.51 0.01c0.43,-0.01 0.79,-0.37 0.79,-0.81l0 -26.82 33.69 0c0.43,-0.01 0.79,-0.36 0.79,-0.8l0 -4.18c0,-0.44 -0.36,-0.79 -0.79,-0.79l-33.68 0.01 0 -23.45 37.62 0c0.44,-0.01 0.79,-0.36 0.79,-0.8l0 -4.18c-0.03,-0.42 -0.37,-0.75 -0.79,-0.77l-0.06 0.03zm0 0l0 0 0 0zm93.66 56.75l-35.01 0 0 -55.99c0,-0.45 -0.35,-0.81 -0.79,-0.81l-4.53 0.01c-0.44,-0.01 -0.79,0.34 -0.79,0.78l0 60.96c0,0.44 0.36,0.79 0.79,0.79l40.32 0.01c0.44,-0.01 0.79,-0.36 0.79,-0.8l0 -4.16c0,-0.44 -0.36,-0.79 -0.79,-0.79l0 -0.01zm0 0l0 0 0 0zm25.27 -56.75l-4.52 0c-0.44,-0.01 -0.79,0.35 -0.79,0.79l0 60.96c0,0.44 0.36,0.79 0.79,0.79l4.52 0.01c0.44,-0.01 0.79,-0.37 0.79,-0.81l0 -60.96c-0.01,-0.43 -0.36,-0.78 -0.79,-0.79l0 0.01zm0 0l0 0 0 0zm68.17 0l-42.86 0c-0.44,-0.01 -0.8,0.35 -0.8,0.79l0 60.96c0,0.44 0.36,0.79 0.79,0.79l4.53 0.01c0.44,-0.01 0.79,-0.37 0.79,-0.81l0 -26.82 33.68 0c0.43,-0.01 0.79,-0.36 0.79,-0.8l0 -4.18c0,-0.44 -0.36,-0.79 -0.79,-0.79l-33.67 0.01 0 -23.45 37.62 0c0.43,-0.01 0.78,-0.36 0.78,-0.8l0 -4.18c-0.03,-0.42 -0.37,-0.75 -0.79,-0.77l-0.05 0.03zm0 0l0 0 0 0zm64.56 56.75l-38.51 0 0 -22.92 34.13 0c0.43,-0.01 0.79,-0.36 0.79,-0.8l0 -4.17c0,-0.44 -0.36,-0.79 -0.79,-0.79l-34.12 0.01 0 -22.4 38.1 0c0.44,-0.01 0.79,-0.36 0.79,-0.8l0 -4.18c0,0 0,-0.01 0,-0.01 0,-0.43 -0.35,-0.78 -0.78,-0.78 -0.01,0 -0.01,0 -0.01,0l-43.34 0.01c-0.44,-0.01 -0.79,0.35 -0.79,0.79l0 60.96c0,0.44 0.35,0.79 0.79,0.79l43.82 0.01c0.43,-0.01 0.79,-0.37 0.79,-0.81l0.01 -4.08c-0.05,-0.44 -0.4,-0.77 -0.83,-0.81l-0.03 -0.01zm0 0l0 0 0 0z"/>
  </g>
 </g>
</svg>
