<?xml version="1.0" encoding="UTF-8"?>
<!DOCTYPE svg PUBLIC "-//W3C//DTD SVG 1.1//EN" "http://www.w3.org/Graphics/SVG/1.1/DTD/svg11.dtd">
<!-- Creator: CorelDRAW 2021.5 -->
<svg xmlns="http://www.w3.org/2000/svg" xml:space="preserve" width="33.8666mm" height="11.0066mm" version="1.1" style="shape-rendering:geometricPrecision; text-rendering:geometricPrecision; image-rendering:optimizeQuality; fill-rule:evenodd; clip-rule:evenodd"
viewBox="0 0 836.58 271.89"
 xmlns:xlink="http://www.w3.org/1999/xlink"
 xmlns:xodm="http://www.corel.com/coreldraw/odm/2003">
 <defs>
  <style type="text/css">
   <![CDATA[
    .fil1 {fill:#929291}
    .fil0 {fill:#919191}
   ]]>
  </style>
 </defs>
 <g id="Layer_x0020_1">
  <metadata id="CorelCorpID_0Corel-Layer"/>
  <path class="fil0" d="M234.24 75.29c30.61,45.71 21.35,118.23 -33.43,156.89 -4.2,2.97 -7.82,4.91 -13.28,7.64 -25.72,12.87 -40.49,13.38 -66.28,11.2 -52.36,-4.43 -43.87,-37.92 -43.87,-81.61l69.02 0 0 -23.01 -69.02 0 0 -54.38 110.85 0 0 -23.01 -115.03 0c-17.92,0 -23.01,19.1 -23.01,37.65l0 127.58c0,23.69 59.74,37.65 77.38,37.65l1.67 0c34.68,-0.05 46.08,-1.66 77.12,-19.51 23.31,-13.41 41.07,-36.26 52.98,-59.95 15.65,-31.12 16.36,-77.57 2.1,-108.79 -5.98,-13.1 -16.1,-32.28 -27.21,-39.71l0 31.37z"/>
  <path class="fil0" d="M-0 123.39c0,34.86 3.79,68.14 27.66,95.74 5.77,6.67 1.41,4.39 7.9,6.74 0,-51.15 -1.67,-21.92 -10.52,-54.32 -9.27,-33.95 -6.94,-72.62 15.24,-102 6.06,-8.03 8.73,-10.79 15.67,-17.8 16.75,-16.92 41.47,-29.48 67.46,-30.84l27.19 -0.02c17.67,0.83 32.32,9.54 40.49,24.34 5.13,9.28 3.42,17.03 3.41,30.05 -0,22.31 0,44.62 0,66.93l-37.65 -46.01 -33.46 0c0,54.43 -4.59,48.1 16.73,48.1 9.28,0 6.27,-11.22 6.27,-20.92 4.23,3.1 58.91,72.95 60.65,79.47l12.55 0 0 -175.68c-4.05,-1.08 -32.88,-23.05 -73.55,-27.19l-26.08 0c-19.52,2.03 -40.78,8.91 -62.71,23.8 -3.66,2.48 -4.11,3.91 -7.9,6.74 -15.33,11.46 -26.78,26.82 -35.43,44.05 -5.63,11.23 -13.93,33.23 -13.93,48.81z"/>
  <path class="fil0" d="M422.47 100.39l33.46 0c4.82,0 6.27,1.45 6.27,6.27l0 39.74 -39.74 0 0 -46.01zm-27.19 92.02c0,8.92 8.03,6.27 27.19,6.27l0 -29.28 29.28 0 10.46 -20.92 0 50.19c19.16,0 27.19,2.65 27.19,-6.27 0,-128.32 10.19,-115.03 -56.47,-115.03l-10.46 20.92 0 -20.92 -27.19 0 0 115.03z"/>
  <path class="fil0" d="M612.79 198.69c19.16,0 27.19,2.65 27.19,-6.27l0 -92.02 39.74 0 0 98.3 27.19 0 0 -104.57c0,-22.76 -28.89,-16.73 -56.47,-16.73l-8.52 18.67c-0.21,0.31 -0.77,0.89 -0.95,1.14 -0.18,0.24 -0.66,0.73 -0.99,1.1l0 -20.92 -27.19 0 0 121.3z"/>
  <path class="fil0" d="M299.08 94.11l0 104.57c34.24,0 27.19,8.67 27.19,-48.1l43.92 0c6.69,-28.73 33.56,-25.1 -43.92,-25.1 0,-31.68 -7.52,-25.1 52.28,-25.1 1.7,-7.28 7.12,-16.71 10.46,-23.01 -17.43,0 -34.86,0 -52.29,0 -19.37,0 -37.65,-2.99 -37.65,16.73z"/>
  <path class="fil0" d="M765.47 140.13l0 58.56c32.61,0 27.2,3.26 27.19,-27.19 -0.01,-42.86 -4.92,-27.01 22.15,-63.6 7.39,-9.99 16.34,-20.26 21.77,-30.52l-29.28 0c-4.41,6.59 -9.51,12.11 -14.23,19.24 -4.04,6.1 -9.59,14.76 -15.05,18.41 -4.38,-6.54 -7.98,-11.96 -12.9,-18.46 -4.83,-6.39 -10.14,-13 -14.28,-19.18l-29.28 0c5.98,11.3 43.92,58.34 43.92,62.74z"/>
  <path class="fil0" d="M531.23 100.39c20.44,0 39.74,-3.73 39.74,6.27l0 92.02c19.16,0 27.19,2.65 27.19,-6.27l0 -96.21c0,-10.5 -5.98,-12.13 -10.46,-18.82l-46.01 0c-1.69,7.28 -7.12,16.71 -10.46,23.01z"/>
  <polygon class="fil0" points="504.04,198.69 529.13,198.69 529.13,77.38 504.04,77.38 "/>
  <g id="_2245991330384">
   <path class="fil1" d="M135.85 231.16c0.56,-0.38 1.25,-1.89 1.57,-2.6 1.32,-3.01 2.54,-5.4 3.87,-8.76 1.45,-3.66 3.52,-8.5 4.74,-12.19 2.31,-6.96 2.67,-6.51 0.3,-6.85 -0.57,-0.08 -1.36,-0.19 -1.88,-0.21l-4.12 -0.18c-1.55,-0.23 -14.17,-0.08 -16.85,-0.08 0.16,0.7 0.43,1.29 0.67,1.94 0.24,0.67 0.47,1.28 0.72,2.02 0.24,0.73 0.46,1.31 0.72,2.02 0.23,0.62 0.46,1.33 0.72,2.01 1.02,2.58 1.88,5.45 2.87,7.95 0.97,2.44 5.04,13.84 6.68,14.94z"/>
   <path class="fil1" d="M123.48 194.18c3.46,0 17.26,0.17 20.08,-0.24 5.33,-0.77 4.38,-3.21 2.66,-8.05 -0.31,-0.86 -0.59,-1.5 -0.94,-2.32 -1.76,-4.18 -3.01,-7.89 -8.65,-7.89 -2.88,0 -5.16,-0.06 -6.83,2.15 -2.48,3.3 -4.87,13.32 -6.32,16.34z"/>
   <path class="fil1" d="M141.85 228.82l0 0.65c0,1.32 1.62,-0.38 2.06,-0.93 1.86,-2.31 3.72,-4.49 5.49,-7.02l2.87 -3.91c0.47,-0.67 0.91,-1.31 1.42,-1.97l11.22 -15.61c-1.94,0 -9.56,0.74 -11.29,1.6 -2.68,1.34 -4.06,4.88 -5.29,7.74 -1.08,2.49 -2.67,6.84 -3.53,9.36 -0.28,0.84 -0.58,1.6 -0.85,2.41 -0.27,0.83 -0.52,1.68 -0.78,2.48 -0.35,1.03 -1.32,4.19 -1.32,5.19z"/>
   <path class="fil1" d="M108.9 201.21c0.1,1.19 5.36,8.38 6.49,10.05l1.88 2.67c4.06,5.43 7.29,10.12 11.8,15.68 1.71,2.11 1.82,2.03 1.09,-0.83 -0.41,-1.61 -0.86,-3.19 -1.38,-4.74 -1.71,-5.1 -5.67,-19.03 -8.45,-22.03 -1.72,-1.86 -3.66,-1.72 -6.09,-1.72 -1.77,0 -3.95,0.18 -5.34,0.91z"/>
   <path class="fil1" d="M145.88 177.38c0,3.21 3.72,12.77 5.95,15.01 2.23,2.23 5.89,1.79 9.28,1.79 4.56,0 1.88,-2.68 -0.41,-6.36 -1.32,-2.11 -4.68,-7.82 -6.39,-9.5 -0.98,-0.96 -3.6,-2.63 -5.44,-2.63 -1.04,0 -2.99,0.04 -2.99,1.69z"/>
   <path class="fil1" d="M106.68 194.18c2.92,0 6.24,0.15 9.12,0 3.01,-0.15 4.52,-1.42 5.6,-3.52 1.04,-2.01 1.88,-4.13 2.68,-6.43 0.2,-0.58 0.39,-1.04 0.61,-1.61 0.55,-1.4 1.52,-4.23 1.52,-5.64 0,-1.48 -1.85,-1.3 -3,-1.3 -2.87,0 -7.66,5.64 -9.37,8.08l-3.57 5.16c-0.62,0.93 -1.17,1.72 -1.8,2.63 -0.32,0.47 -0.59,0.81 -0.91,1.3 -0.31,0.47 -0.59,0.88 -0.88,1.33z"/>
  </g>
 </g>
</svg>
